<svg width="782" height="224" viewBox="0 0 782 224" fill="none" xmlns="http://www.w3.org/2000/svg">
<path d="M675.812 10.9337C685.073 -2.29554 715.499 3.38062 728.728 10.9336C741.958 18.4867 749.234 28.1316 751.88 45.9911C754.525 63.8505 734.02 92.9277 720.13 104.169C708.275 113.762 687.686 120.027 693.671 97.585C701.609 67.8231 770.401 157.113 779 206.061" stroke="#494949" stroke-width="4.88889"/>
<g filter="url(#filter0_i_3_143)">
<rect x="671.181" y="112.799" width="11.9063" height="89.9586" fill="#D9D9D9"/>
</g>
<g filter="url(#filter1_i_3_143)">
<rect x="667.213" y="6.96497" width="19.8438" height="129.646" rx="1.22222" fill="#C65757"/>
</g>
<rect x="663.244" y="114.121" width="27.7813" height="23.8126" rx="2.44444" fill="#C65757"/>
<g filter="url(#filter2_i_3_143)">
<path d="M677.796 223.924L671.181 202.757H683.088L677.796 223.924Z" fill="#D9D9D9"/>
</g>
<rect x="663.244" y="133.965" width="5.29168" height="1.32292" fill="#171717"/>
<rect x="663.244" y="129.997" width="5.29168" height="1.32292" fill="#171717"/>
<rect x="663.244" y="126.028" width="5.29168" height="1.32292" fill="#171717"/>
<rect x="663.244" y="122.059" width="5.29168" height="1.32292" fill="#171717"/>
<rect x="663.244" y="118.09" width="5.29168" height="1.32292" fill="#171717"/>
<rect x="685.733" y="133.965" width="5.29168" height="1.32292" fill="#171717"/>
<rect x="685.733" y="129.997" width="5.29168" height="1.32292" fill="#171717"/>
<rect x="685.733" y="126.028" width="5.29168" height="1.32292" fill="#171717"/>
<rect x="685.733" y="122.059" width="5.29168" height="1.32292" fill="#171717"/>
<rect x="685.733" y="118.09" width="5.29168" height="1.32292" fill="#171717"/>
<rect x="671.181" y="133.965" width="11.9063" height="1.32292" fill="#171717"/>
<rect x="671.181" y="129.997" width="11.9063" height="1.32292" fill="#171717"/>
<rect x="671.181" y="126.028" width="11.9063" height="1.32292" fill="#171717"/>
<rect x="671.181" y="122.059" width="11.9063" height="1.32292" fill="#171717"/>
<rect x="671.181" y="118.09" width="11.9063" height="1.32292" fill="#171717"/>
<rect x="533.831" y="21.0497" width="14.1546" height="163.789" fill="#616161"/>
<rect x="494.967" y="124.564" width="28.4153" height="28.4153" fill="#3F3F3F"/>
<rect x="493.389" y="128.935" width="1.57863" height="2.18579" fill="#3F3F3F"/>
<rect x="493.389" y="133.307" width="1.57863" height="2.18579" fill="#3F3F3F"/>
<rect x="493.389" y="137.678" width="1.57863" height="2.18579" fill="#3F3F3F"/>
<rect x="493.389" y="142.05" width="1.57863" height="2.18579" fill="#3F3F3F"/>
<rect x="493.389" y="146.422" width="1.57863" height="2.18579" fill="#3F3F3F"/>
<rect x="493.389" y="150.793" width="1.57863" height="2.18579" fill="#3F3F3F"/>
<rect x="493.389" y="124.563" width="1.57863" height="2.18579" fill="#3F3F3F"/>
<rect x="519.676" y="21.0497" width="14.1546" height="163.789" fill="#848484"/>
<rect x="511.588" y="6.89514" width="10.1104" height="194.12" fill="#D9D9D9"/>
<path d="M536.864 6.89514H521.698V21.0497H536.864V6.89514Z" fill="#9F9F9F"/>
<g filter="url(#filter3_i_3_143)">
<rect x="537.226" y="161.479" width="79.5099" height="11.5361" fill="#DCDCDB"/>
</g>
<g filter="url(#filter4_i_3_143)">
<rect x="537.226" y="99.1841" width="79.5099" height="11.5361" fill="#DCDCDB"/>
</g>
<g filter="url(#filter5_i_3_143)">
<rect x="537.226" y="36.8891" width="79.5099" height="11.5361" fill="#DCDCDB"/>
</g>
<path d="M537.875 184.839H521.698V185.85V201.015H537.875V184.839Z" fill="#9F9F9F"/>
<path d="M537.875 189.894L521.698 184.839H537.875V189.894Z" fill="#898989"/>
<path d="M407.559 100.825C427.01 126.499 461.148 138.922 462.934 182.816M407.559 88.4025C407.559 88.4025 425.351 82.8986 440.308 68.5255C453.415 55.9296 454.598 35.3978 467.102 27.1159" stroke="black" stroke-width="1.22222" stroke-linecap="round"/>
<rect x="349.821" y="14.9834" width="58.0251" height="178.363" fill="#4EA36A"/>
<g filter="url(#filter6_d_3_143)">
<rect x="356.452" y="22.4152" width="44.7622" height="161.641" fill="#333333"/>
</g>
<g filter="url(#filter7_i_3_143)">
<rect x="364.742" y="33.5628" width="28.1836" height="139.346" fill="#6CB04C"/>
</g>
<path d="M389.205 43.0968C389.088 43.1261 388.941 43.1408 388.765 43.1408C388.596 43.1408 388.45 43.1261 388.325 43.0968C388.208 43.1261 388.061 43.1408 387.885 43.1408C387.716 43.1408 387.57 43.1261 387.445 43.0968C387.328 43.1261 387.181 43.1408 387.005 43.1408C386.836 43.1408 386.69 43.1261 386.565 43.0968C386.448 43.1261 386.301 43.1408 386.125 43.1408C385.956 43.1408 385.81 43.1261 385.685 43.0968C385.568 43.1261 385.421 43.1408 385.245 43.1408C385.076 43.1408 384.93 43.1261 384.805 43.0968C384.688 43.1261 384.541 43.1408 384.365 43.1408C384.196 43.1408 384.05 43.1261 383.925 43.0968V42.2168C384.05 42.1874 384.196 42.1728 384.365 42.1728C384.541 42.1728 384.688 42.1874 384.805 42.2168C384.93 42.1874 385.076 42.1728 385.245 42.1728C385.421 42.1728 385.568 42.1874 385.685 42.2168C385.81 42.1874 385.956 42.1728 386.125 42.1728C386.301 42.1728 386.448 42.1874 386.565 42.2168V40.4568C386.448 40.4861 386.301 40.5008 386.125 40.5008C385.956 40.5008 385.81 40.4861 385.685 40.4568C385.568 40.4861 385.421 40.5008 385.245 40.5008C385.076 40.5008 384.93 40.4861 384.805 40.4568C384.688 40.4861 384.541 40.5008 384.365 40.5008C384.196 40.5008 384.05 40.4861 383.925 40.4568V39.5768C384.05 39.5474 384.196 39.5328 384.365 39.5328C384.541 39.5328 384.688 39.5474 384.805 39.5768C384.93 39.5474 385.076 39.5328 385.245 39.5328C385.421 39.5328 385.568 39.5474 385.685 39.5768C385.81 39.5474 385.956 39.5328 386.125 39.5328C386.301 39.5328 386.448 39.5474 386.565 39.5768C386.69 39.5474 386.836 39.5328 387.005 39.5328C387.181 39.5328 387.328 39.5474 387.445 39.5768C387.57 39.5474 387.716 39.5328 387.885 39.5328C388.061 39.5328 388.208 39.5474 388.325 39.5768C388.45 39.5474 388.596 39.5328 388.765 39.5328C388.941 39.5328 389.088 39.5474 389.205 39.5768C389.33 39.5474 389.476 39.5328 389.645 39.5328C389.821 39.5328 389.968 39.5474 390.085 39.5768V40.4568C389.968 40.4861 389.821 40.5008 389.645 40.5008C389.476 40.5008 389.33 40.4861 389.205 40.4568C389.088 40.4861 388.941 40.5008 388.765 40.5008C388.596 40.5008 388.45 40.4861 388.325 40.4568C388.208 40.4861 388.061 40.5008 387.885 40.5008C387.716 40.5008 387.57 40.4861 387.445 40.4568V42.2168C387.57 42.1874 387.716 42.1728 387.885 42.1728C388.061 42.1728 388.208 42.1874 388.325 42.2168C388.45 42.1874 388.596 42.1728 388.765 42.1728C388.941 42.1728 389.088 42.1874 389.205 42.2168C389.33 42.1874 389.476 42.1728 389.645 42.1728C389.821 42.1728 389.968 42.1874 390.085 42.2168V43.0968C389.968 43.1261 389.821 43.1408 389.645 43.1408C389.476 43.1408 389.33 43.1261 389.205 43.0968ZM386.565 45.3011C386.448 45.3304 386.301 45.3451 386.125 45.3451C385.956 45.3451 385.81 45.3304 385.685 45.3011C385.568 45.3304 385.421 45.3451 385.245 45.3451C385.076 45.3451 384.93 45.3304 384.805 45.3011V47.0611C384.688 47.0904 384.541 47.1051 384.365 47.1051C384.196 47.1051 384.05 47.0904 383.925 47.0611V44.4211C384.05 44.3917 384.196 44.3771 384.365 44.3771C384.541 44.3771 384.688 44.3917 384.805 44.4211C384.93 44.3917 385.076 44.3771 385.245 44.3771C385.421 44.3771 385.568 44.3917 385.685 44.4211C385.81 44.3917 385.956 44.3771 386.125 44.3771C386.301 44.3771 386.448 44.3917 386.565 44.4211C386.69 44.3917 386.836 44.3771 387.005 44.3771C387.181 44.3771 387.328 44.3917 387.445 44.4211C387.57 44.3917 387.716 44.3771 387.885 44.3771C388.061 44.3771 388.208 44.3917 388.325 44.4211C388.45 44.3917 388.596 44.3771 388.765 44.3771C388.941 44.3771 389.088 44.3917 389.205 44.4211C389.33 44.3917 389.476 44.3771 389.645 44.3771C389.821 44.3771 389.968 44.3917 390.085 44.4211V47.0611C389.968 47.0904 389.821 47.1051 389.645 47.1051C389.476 47.1051 389.33 47.0904 389.205 47.0611V45.3011C389.088 45.3304 388.941 45.3451 388.765 45.3451C388.596 45.3451 388.45 45.3304 388.325 45.3011C388.208 45.3304 388.061 45.3451 387.885 45.3451C387.716 45.3451 387.57 45.3304 387.445 45.3011V47.0611C387.328 47.0904 387.181 47.1051 387.005 47.1051C386.836 47.1051 386.69 47.0904 386.565 47.0611V45.3011ZM384.805 51.9054C384.688 51.9347 384.541 51.9494 384.365 51.9494C384.196 51.9494 384.05 51.9347 383.925 51.9054V48.8254C384.05 48.796 384.196 48.7814 384.365 48.7814C384.541 48.7814 384.688 48.796 384.805 48.8254C384.93 48.796 385.076 48.7814 385.245 48.7814C385.421 48.7814 385.568 48.796 385.685 48.8254C385.81 48.796 385.956 48.7814 386.125 48.7814C386.301 48.7814 386.448 48.796 386.565 48.8254C386.69 48.796 386.836 48.7814 387.005 48.7814C387.181 48.7814 387.328 48.796 387.445 48.8254C387.57 48.796 387.716 48.7814 387.885 48.7814C388.061 48.7814 388.208 48.796 388.325 48.8254C388.45 48.796 388.596 48.7814 388.765 48.7814C388.941 48.7814 389.088 48.796 389.205 48.8254C389.33 48.796 389.476 48.7814 389.645 48.7814C389.821 48.7814 389.968 48.796 390.085 48.8254V49.7054C389.968 49.7347 389.821 49.7494 389.645 49.7494C389.476 49.7494 389.33 49.7347 389.205 49.7054C389.088 49.7347 388.941 49.7494 388.765 49.7494C388.596 49.7494 388.45 49.7347 388.325 49.7054C388.208 49.7347 388.061 49.7494 387.885 49.7494C387.716 49.7494 387.57 49.7347 387.445 49.7054C387.328 49.7347 387.181 49.7494 387.005 49.7494C386.836 49.7494 386.69 49.7347 386.565 49.7054C386.448 49.7347 386.301 49.7494 386.125 49.7494C385.956 49.7494 385.81 49.7347 385.685 49.7054C385.568 49.7347 385.421 49.7494 385.245 49.7494C385.076 49.7494 384.93 49.7347 384.805 49.7054V51.9054ZM384.805 56.3097C384.688 56.339 384.541 56.3537 384.365 56.3537C384.196 56.3537 384.05 56.339 383.925 56.3097V53.2297C384.05 53.2003 384.196 53.1857 384.365 53.1857C384.541 53.1857 384.688 53.2003 384.805 53.2297C384.93 53.2003 385.076 53.1857 385.245 53.1857C385.421 53.1857 385.568 53.2003 385.685 53.2297C385.81 53.2003 385.956 53.1857 386.125 53.1857C386.301 53.1857 386.448 53.2003 386.565 53.2297C386.69 53.2003 386.836 53.1857 387.005 53.1857C387.181 53.1857 387.328 53.2003 387.445 53.2297C387.57 53.2003 387.716 53.1857 387.885 53.1857C388.061 53.1857 388.208 53.2003 388.325 53.2297C388.45 53.2003 388.596 53.1857 388.765 53.1857C388.941 53.1857 389.088 53.2003 389.205 53.2297C389.33 53.2003 389.476 53.1857 389.645 53.1857C389.821 53.1857 389.968 53.2003 390.085 53.2297V54.1097C389.968 54.139 389.821 54.1537 389.645 54.1537C389.476 54.1537 389.33 54.139 389.205 54.1097C389.088 54.139 388.941 54.1537 388.765 54.1537C388.596 54.1537 388.45 54.139 388.325 54.1097C388.208 54.139 388.061 54.1537 387.885 54.1537C387.716 54.1537 387.57 54.139 387.445 54.1097C387.328 54.139 387.181 54.1537 387.005 54.1537C386.836 54.1537 386.69 54.139 386.565 54.1097C386.448 54.139 386.301 54.1537 386.125 54.1537C385.956 54.1537 385.81 54.139 385.685 54.1097C385.568 54.139 385.421 54.1537 385.245 54.1537C385.076 54.1537 384.93 54.139 384.805 54.1097V56.3097ZM387.445 60.714C387.328 60.7433 387.181 60.758 387.005 60.758C386.836 60.758 386.69 60.7433 386.565 60.714C386.448 60.7433 386.301 60.758 386.125 60.758C385.956 60.758 385.81 60.7433 385.685 60.714V60.384C385.568 60.4133 385.421 60.428 385.245 60.428C385.076 60.428 384.93 60.4133 384.805 60.384V59.834C384.688 59.8633 384.541 59.878 384.365 59.878C384.196 59.878 384.05 59.8633 383.925 59.834V58.074C384.05 58.0446 384.196 58.03 384.365 58.03C384.541 58.03 384.688 58.0446 384.805 58.074V57.524C384.93 57.4946 385.076 57.48 385.245 57.48C385.421 57.48 385.568 57.4946 385.685 57.524V57.194C385.81 57.1646 385.956 57.15 386.125 57.15C386.301 57.15 386.448 57.1646 386.565 57.194C386.69 57.1646 386.836 57.15 387.005 57.15C387.181 57.15 387.328 57.1646 387.445 57.194C387.57 57.1646 387.716 57.15 387.885 57.15C388.061 57.15 388.208 57.1646 388.325 57.194V57.524C388.45 57.4946 388.596 57.48 388.765 57.48C388.941 57.48 389.088 57.4946 389.205 57.524V58.074C389.33 58.0446 389.476 58.03 389.645 58.03C389.821 58.03 389.968 58.0446 390.085 58.074V59.834C389.968 59.8633 389.821 59.878 389.645 59.878C389.476 59.878 389.33 59.8633 389.205 59.834V60.384C389.088 60.4133 388.941 60.428 388.765 60.428C388.596 60.428 388.45 60.4133 388.325 60.384V60.714C388.208 60.7433 388.061 60.758 387.885 60.758C387.716 60.758 387.57 60.7433 387.445 60.714ZM385.685 59.834C385.81 59.8046 385.956 59.79 386.125 59.79C386.301 59.79 386.448 59.8046 386.565 59.834C386.69 59.8046 386.836 59.79 387.005 59.79C387.181 59.79 387.328 59.8046 387.445 59.834C387.57 59.8046 387.716 59.79 387.885 59.79C388.061 59.79 388.208 59.8046 388.325 59.834V59.504C388.45 59.4746 388.596 59.46 388.765 59.46C388.941 59.46 389.088 59.4746 389.205 59.504V58.404C389.088 58.4333 388.941 58.448 388.765 58.448C388.596 58.448 388.45 58.4333 388.325 58.404V58.074C388.208 58.1033 388.061 58.118 387.885 58.118C387.716 58.118 387.57 58.1033 387.445 58.074C387.328 58.1033 387.181 58.118 387.005 58.118C386.836 58.118 386.69 58.1033 386.565 58.074C386.448 58.1033 386.301 58.118 386.125 58.118C385.956 58.118 385.81 58.1033 385.685 58.074V58.404C385.568 58.4333 385.421 58.448 385.245 58.448C385.076 58.448 384.93 58.4333 384.805 58.404V59.504C384.93 59.4746 385.076 59.46 385.245 59.46C385.421 59.46 385.568 59.4746 385.685 59.504V59.834ZM389.205 69.5226C389.088 69.5519 388.941 69.5666 388.765 69.5666C388.596 69.5666 388.45 69.5519 388.325 69.5226C388.208 69.5519 388.061 69.5666 387.885 69.5666C387.716 69.5666 387.57 69.5519 387.445 69.5226C387.328 69.5519 387.181 69.5666 387.005 69.5666C386.836 69.5666 386.69 69.5519 386.565 69.5226V69.1926C386.448 69.2219 386.301 69.2366 386.125 69.2366C385.956 69.2366 385.81 69.2219 385.685 69.1926C385.568 69.2219 385.421 69.2366 385.245 69.2366C385.076 69.2366 384.93 69.2219 384.805 69.1926V68.9726C384.688 69.0019 384.541 69.0166 384.365 69.0166C384.196 69.0166 384.05 69.0019 383.925 68.9726V68.3126C384.05 68.2832 384.196 68.2686 384.365 68.2686C384.541 68.2686 384.688 68.2832 384.805 68.3126V68.0926C384.93 68.0632 385.076 68.0486 385.245 68.0486C385.421 68.0486 385.568 68.0632 385.685 68.0926V67.4326C385.568 67.4619 385.421 67.4766 385.245 67.4766C385.076 67.4766 384.93 67.4619 384.805 67.4326V67.2126C384.688 67.2419 384.541 67.2566 384.365 67.2566C384.196 67.2566 384.05 67.2419 383.925 67.2126V66.5526C384.05 66.5232 384.196 66.5086 384.365 66.5086C384.541 66.5086 384.688 66.5232 384.805 66.5526V66.3326C384.93 66.3032 385.076 66.2886 385.245 66.2886C385.421 66.2886 385.568 66.3032 385.685 66.3326C385.81 66.3032 385.956 66.2886 386.125 66.2886C386.301 66.2886 386.448 66.3032 386.565 66.3326V66.0026C386.69 65.9732 386.836 65.9586 387.005 65.9586C387.181 65.9586 387.328 65.9732 387.445 66.0026C387.57 65.9732 387.716 65.9586 387.885 65.9586C388.061 65.9586 388.208 65.9732 388.325 66.0026C388.45 65.9732 388.596 65.9586 388.765 65.9586C388.941 65.9586 389.088 65.9732 389.205 66.0026C389.33 65.9732 389.476 65.9586 389.645 65.9586C389.821 65.9586 389.968 65.9732 390.085 66.0026V66.8826C389.968 66.9119 389.821 66.9266 389.645 66.9266C389.476 66.9266 389.33 66.9119 389.205 66.8826C389.088 66.9119 388.941 66.9266 388.765 66.9266C388.596 66.9266 388.45 66.9119 388.325 66.8826C388.208 66.9119 388.061 66.9266 387.885 66.9266C387.716 66.9266 387.57 66.9119 387.445 66.8826C387.328 66.9119 387.181 66.9266 387.005 66.9266C386.836 66.9266 386.69 66.9119 386.565 66.8826C386.448 66.9119 386.301 66.9266 386.125 66.9266C385.956 66.9266 385.81 66.9119 385.685 66.8826V67.2126C385.81 67.1832 385.956 67.1686 386.125 67.1686C386.301 67.1686 386.448 67.1832 386.565 67.2126V67.4326C386.69 67.4032 386.836 67.3886 387.005 67.3886C387.181 67.3886 387.328 67.4032 387.445 67.4326C387.57 67.4032 387.716 67.3886 387.885 67.3886C388.061 67.3886 388.208 67.4032 388.325 67.4326C388.45 67.4032 388.596 67.3886 388.765 67.3886C388.941 67.3886 389.088 67.4032 389.205 67.4326C389.33 67.4032 389.476 67.3886 389.645 67.3886C389.821 67.3886 389.968 67.4032 390.085 67.4326V68.0926C389.968 68.1219 389.821 68.1366 389.645 68.1366C389.476 68.1366 389.33 68.1219 389.205 68.0926C389.088 68.1219 388.941 68.1366 388.765 68.1366C388.596 68.1366 388.45 68.1219 388.325 68.0926C388.208 68.1219 388.061 68.1366 387.885 68.1366C387.716 68.1366 387.57 68.1219 387.445 68.0926C387.328 68.1219 387.181 68.1366 387.005 68.1366C386.836 68.1366 386.69 68.1219 386.565 68.0926V68.3126C386.448 68.3419 386.301 68.3566 386.125 68.3566C385.956 68.3566 385.81 68.3419 385.685 68.3126V68.6426C385.81 68.6132 385.956 68.5986 386.125 68.5986C386.301 68.5986 386.448 68.6132 386.565 68.6426C386.69 68.6132 386.836 68.5986 387.005 68.5986C387.181 68.5986 387.328 68.6132 387.445 68.6426C387.57 68.6132 387.716 68.5986 387.885 68.5986C388.061 68.5986 388.208 68.6132 388.325 68.6426C388.45 68.6132 388.596 68.5986 388.765 68.5986C388.941 68.5986 389.088 68.6132 389.205 68.6426C389.33 68.6132 389.476 68.5986 389.645 68.5986C389.821 68.5986 389.968 68.6132 390.085 68.6426V69.5226C389.968 69.5519 389.821 69.5666 389.645 69.5666C389.476 69.5666 389.33 69.5519 389.205 69.5226ZM387.445 73.9269C387.328 73.9562 387.181 73.9709 387.005 73.9709C386.836 73.9709 386.69 73.9562 386.565 73.9269C386.448 73.9562 386.301 73.9709 386.125 73.9709C385.956 73.9709 385.81 73.9562 385.685 73.9269V73.5969C385.568 73.6262 385.421 73.6409 385.245 73.6409C385.076 73.6409 384.93 73.6262 384.805 73.5969V73.0469C384.688 73.0762 384.541 73.0909 384.365 73.0909C384.196 73.0909 384.05 73.0762 383.925 73.0469V71.2869C384.05 71.2575 384.196 71.2429 384.365 71.2429C384.541 71.2429 384.688 71.2575 384.805 71.2869V70.7369C384.93 70.7075 385.076 70.6929 385.245 70.6929C385.421 70.6929 385.568 70.7075 385.685 70.7369V70.4069C385.81 70.3775 385.956 70.3629 386.125 70.3629C386.301 70.3629 386.448 70.3775 386.565 70.4069C386.69 70.3775 386.836 70.3629 387.005 70.3629C387.181 70.3629 387.328 70.3775 387.445 70.4069C387.57 70.3775 387.716 70.3629 387.885 70.3629C388.061 70.3629 388.208 70.3775 388.325 70.4069V70.7369C388.45 70.7075 388.596 70.6929 388.765 70.6929C388.941 70.6929 389.088 70.7075 389.205 70.7369V71.2869C389.33 71.2575 389.476 71.2429 389.645 71.2429C389.821 71.2429 389.968 71.2575 390.085 71.2869V73.0469C389.968 73.0762 389.821 73.0909 389.645 73.0909C389.476 73.0909 389.33 73.0762 389.205 73.0469V73.5969C389.088 73.6262 388.941 73.6409 388.765 73.6409C388.596 73.6409 388.45 73.6262 388.325 73.5969V73.9269C388.208 73.9562 388.061 73.9709 387.885 73.9709C387.716 73.9709 387.57 73.9562 387.445 73.9269ZM385.685 73.0469C385.81 73.0175 385.956 73.0029 386.125 73.0029C386.301 73.0029 386.448 73.0175 386.565 73.0469C386.69 73.0175 386.836 73.0029 387.005 73.0029C387.181 73.0029 387.328 73.0175 387.445 73.0469C387.57 73.0175 387.716 73.0029 387.885 73.0029C388.061 73.0029 388.208 73.0175 388.325 73.0469V72.7169C388.45 72.6875 388.596 72.6729 388.765 72.6729C388.941 72.6729 389.088 72.6875 389.205 72.7169V71.6169C389.088 71.6462 388.941 71.6609 388.765 71.6609C388.596 71.6609 388.45 71.6462 388.325 71.6169V71.2869C388.208 71.3162 388.061 71.3309 387.885 71.3309C387.716 71.3309 387.57 71.3162 387.445 71.2869C387.328 71.3162 387.181 71.3309 387.005 71.3309C386.836 71.3309 386.69 71.3162 386.565 71.2869C386.448 71.3162 386.301 71.3309 386.125 71.3309C385.956 71.3309 385.81 71.3162 385.685 71.2869V71.6169C385.568 71.6462 385.421 71.6609 385.245 71.6609C385.076 71.6609 384.93 71.6462 384.805 71.6169V72.7169C384.93 72.6875 385.076 72.6729 385.245 72.6729C385.421 72.6729 385.568 72.6875 385.685 72.7169V73.0469ZM384.805 78.3312C384.688 78.3605 384.541 78.3752 384.365 78.3752C384.196 78.3752 384.05 78.3605 383.925 78.3312V77.4512C384.05 77.4218 384.196 77.4072 384.365 77.4072C384.541 77.4072 384.688 77.4218 384.805 77.4512V77.1212C384.93 77.0918 385.076 77.0772 385.245 77.0772C385.421 77.0772 385.568 77.0918 385.685 77.1212V76.7912C385.81 76.7618 385.956 76.7472 386.125 76.7472C386.301 76.7472 386.448 76.7618 386.565 76.7912V75.6912C386.448 75.7205 386.301 75.7352 386.125 75.7352C385.956 75.7352 385.81 75.7205 385.685 75.6912C385.568 75.7205 385.421 75.7352 385.245 75.7352C385.076 75.7352 384.93 75.7205 384.805 75.6912C384.688 75.7205 384.541 75.7352 384.365 75.7352C384.196 75.7352 384.05 75.7205 383.925 75.6912V74.8112C384.05 74.7818 384.196 74.7672 384.365 74.7672C384.541 74.7672 384.688 74.7818 384.805 74.8112C384.93 74.7818 385.076 74.7672 385.245 74.7672C385.421 74.7672 385.568 74.7818 385.685 74.8112C385.81 74.7818 385.956 74.7672 386.125 74.7672C386.301 74.7672 386.448 74.7818 386.565 74.8112C386.69 74.7818 386.836 74.7672 387.005 74.7672C387.181 74.7672 387.328 74.7818 387.445 74.8112C387.57 74.7818 387.716 74.7672 387.885 74.7672C388.061 74.7672 388.208 74.7818 388.325 74.8112C388.45 74.7818 388.596 74.7672 388.765 74.7672C388.941 74.7672 389.088 74.7818 389.205 74.8112C389.33 74.7818 389.476 74.7672 389.645 74.7672C389.821 74.7672 389.968 74.7818 390.085 74.8112V77.8912C389.968 77.9205 389.821 77.9352 389.645 77.9352C389.476 77.9352 389.33 77.9205 389.205 77.8912V78.3312C389.088 78.3605 388.941 78.3752 388.765 78.3752C388.596 78.3752 388.45 78.3605 388.325 78.3312V78.1112C388.208 78.1405 388.061 78.1552 387.885 78.1552C387.716 78.1552 387.57 78.1405 387.445 78.1112V77.4512C387.328 77.4805 387.181 77.4952 387.005 77.4952C386.836 77.4952 386.69 77.4805 386.565 77.4512V77.6712C386.448 77.7005 386.301 77.7152 386.125 77.7152C385.956 77.7152 385.81 77.7005 385.685 77.6712V78.0012C385.568 78.0305 385.421 78.0452 385.245 78.0452C385.076 78.0452 384.93 78.0305 384.805 78.0012V78.3312ZM387.445 77.2312C387.57 77.2018 387.716 77.1872 387.885 77.1872C388.061 77.1872 388.208 77.2018 388.325 77.2312C388.45 77.2018 388.596 77.1872 388.765 77.1872C388.941 77.1872 389.088 77.2018 389.205 77.2312V75.6912C389.088 75.7205 388.941 75.7352 388.765 75.7352C388.596 75.7352 388.45 75.7205 388.325 75.6912C388.208 75.7205 388.061 75.7352 387.885 75.7352C387.716 75.7352 387.57 75.7205 387.445 75.6912V77.2312ZM384.805 82.7355C384.688 82.7648 384.541 82.7795 384.365 82.7795C384.196 82.7795 384.05 82.7648 383.925 82.7355V79.6555C384.05 79.6261 384.196 79.6115 384.365 79.6115C384.541 79.6115 384.688 79.6261 384.805 79.6555C384.93 79.6261 385.076 79.6115 385.245 79.6115C385.421 79.6115 385.568 79.6261 385.685 79.6555C385.81 79.6261 385.956 79.6115 386.125 79.6115C386.301 79.6115 386.448 79.6261 386.565 79.6555C386.69 79.6261 386.836 79.6115 387.005 79.6115C387.181 79.6115 387.328 79.6261 387.445 79.6555C387.57 79.6261 387.716 79.6115 387.885 79.6115C388.061 79.6115 388.208 79.6261 388.325 79.6555C388.45 79.6261 388.596 79.6115 388.765 79.6115C388.941 79.6115 389.088 79.6261 389.205 79.6555C389.33 79.6261 389.476 79.6115 389.645 79.6115C389.821 79.6115 389.968 79.6261 390.085 79.6555V80.5355C389.968 80.5648 389.821 80.5795 389.645 80.5795C389.476 80.5795 389.33 80.5648 389.205 80.5355C389.088 80.5648 388.941 80.5795 388.765 80.5795C388.596 80.5795 388.45 80.5648 388.325 80.5355C388.208 80.5648 388.061 80.5795 387.885 80.5795C387.716 80.5795 387.57 80.5648 387.445 80.5355C387.328 80.5648 387.181 80.5795 387.005 80.5795C386.836 80.5795 386.69 80.5648 386.565 80.5355C386.448 80.5648 386.301 80.5795 386.125 80.5795C385.956 80.5795 385.81 80.5648 385.685 80.5355C385.568 80.5648 385.421 80.5795 385.245 80.5795C385.076 80.5795 384.93 80.5648 384.805 80.5355V82.7355ZM387.445 87.1397C387.328 87.1691 387.181 87.1837 387.005 87.1837C386.836 87.1837 386.69 87.1691 386.565 87.1397C386.448 87.1691 386.301 87.1837 386.125 87.1837C385.956 87.1837 385.81 87.1691 385.685 87.1397V86.6997C385.568 86.7291 385.421 86.7437 385.245 86.7437C385.076 86.7437 384.93 86.7291 384.805 86.6997V86.2597C384.688 86.2891 384.541 86.3037 384.365 86.3037C384.196 86.3037 384.05 86.2891 383.925 86.2597V83.6197C384.05 83.5904 384.196 83.5757 384.365 83.5757C384.541 83.5757 384.688 83.5904 384.805 83.6197C384.93 83.5904 385.076 83.5757 385.245 83.5757C385.421 83.5757 385.568 83.5904 385.685 83.6197C385.81 83.5904 385.956 83.5757 386.125 83.5757C386.301 83.5757 386.448 83.5904 386.565 83.6197C386.69 83.5904 386.836 83.5757 387.005 83.5757C387.181 83.5757 387.328 83.5904 387.445 83.6197C387.57 83.5904 387.716 83.5757 387.885 83.5757C388.061 83.5757 388.208 83.5904 388.325 83.6197C388.45 83.5904 388.596 83.5757 388.765 83.5757C388.941 83.5757 389.088 83.5904 389.205 83.6197C389.33 83.5904 389.476 83.5757 389.645 83.5757C389.821 83.5757 389.968 83.5904 390.085 83.6197V86.2597C389.968 86.2891 389.821 86.3037 389.645 86.3037C389.476 86.3037 389.33 86.2891 389.205 86.2597V86.6997C389.088 86.7291 388.941 86.7437 388.765 86.7437C388.596 86.7437 388.45 86.7291 388.325 86.6997V87.1397C388.208 87.1691 388.061 87.1837 387.885 87.1837C387.716 87.1837 387.57 87.1691 387.445 87.1397ZM385.685 86.2597C385.81 86.2304 385.956 86.2157 386.125 86.2157C386.301 86.2157 386.448 86.2304 386.565 86.2597C386.69 86.2304 386.836 86.2157 387.005 86.2157C387.181 86.2157 387.328 86.2304 387.445 86.2597C387.57 86.2304 387.716 86.2157 387.885 86.2157C388.061 86.2157 388.208 86.2304 388.325 86.2597V85.8197C388.45 85.7904 388.596 85.7757 388.765 85.7757C388.941 85.7757 389.088 85.7904 389.205 85.8197V84.4997C389.088 84.5291 388.941 84.5437 388.765 84.5437C388.596 84.5437 388.45 84.5291 388.325 84.4997C388.208 84.5291 388.061 84.5437 387.885 84.5437C387.716 84.5437 387.57 84.5291 387.445 84.4997C387.328 84.5291 387.181 84.5437 387.005 84.5437C386.836 84.5437 386.69 84.5291 386.565 84.4997C386.448 84.5291 386.301 84.5437 386.125 84.5437C385.956 84.5437 385.81 84.5291 385.685 84.4997C385.568 84.5291 385.421 84.5437 385.245 84.5437C385.076 84.5437 384.93 84.5291 384.805 84.4997V85.8197C384.93 85.7904 385.076 85.7757 385.245 85.7757C385.421 85.7757 385.568 85.7904 385.685 85.8197V86.2597ZM389.205 90.224C389.088 90.2534 388.941 90.268 388.765 90.268C388.596 90.268 388.45 90.2534 388.325 90.224C388.208 90.2534 388.061 90.268 387.885 90.268C387.716 90.268 387.57 90.2534 387.445 90.224C387.328 90.2534 387.181 90.268 387.005 90.268C386.836 90.268 386.69 90.2534 386.565 90.224C386.448 90.2534 386.301 90.268 386.125 90.268C385.956 90.268 385.81 90.2534 385.685 90.224V89.344C385.81 89.3147 385.956 89.3 386.125 89.3C386.301 89.3 386.448 89.3147 386.565 89.344C386.69 89.3147 386.836 89.3 387.005 89.3C387.181 89.3 387.328 89.3147 387.445 89.344C387.57 89.3147 387.716 89.3 387.885 89.3C388.061 89.3 388.208 89.3147 388.325 89.344C388.45 89.3147 388.596 89.3 388.765 89.3C388.941 89.3 389.088 89.3147 389.205 89.344C389.33 89.3147 389.476 89.3 389.645 89.3C389.821 89.3 389.968 89.3147 390.085 89.344V90.224C389.968 90.2534 389.821 90.268 389.645 90.268C389.476 90.268 389.33 90.2534 389.205 90.224ZM384.805 90.224C384.688 90.2534 384.541 90.268 384.365 90.268C384.196 90.268 384.05 90.2534 383.925 90.224V89.344C384.05 89.3147 384.196 89.3 384.365 89.3C384.541 89.3 384.688 89.3147 384.805 89.344V90.224Z" fill="black"/>
<path d="M257.816 125.187C257.816 125.187 256.805 129.231 246.694 144.397C236.584 159.563 239.617 190.905 239.617 190.905M282.081 125.187V190.905" stroke="black" stroke-width="1.22222" stroke-linecap="round"/>
<g filter="url(#filter8_i_3_143)">
<path d="M303.313 126.198H224.451V118.039H229.319C229.319 118.039 228.346 66.0258 229.319 47.6681C230.293 29.3103 249.011 15.9438 265.342 17.072C280.075 18.0898 296.498 33.3898 296.498 46.6482L296.498 118.039H303.313V126.198Z" fill="#DE0000"/>
</g>
<path d="M240.628 71.6018V124.176H247.85V93.4251H262.293L271.578 82.5134V71.6018H240.628Z" fill="#7A0000"/>
<path d="M287.136 71.6018H276.737V85.4893L269.515 93.4251H279.832V124.176H287.136V71.6018Z" fill="#7A0000"/>
<path d="M0 20.6722C0 18.6472 1.64162 17.0056 3.66667 17.0056H168.211C170.236 17.0056 171.877 18.6472 171.877 20.6722V90.1781C171.877 92.2032 170.236 93.8448 168.211 93.8448H3.66666C1.64162 93.8448 0 92.2032 0 90.1781V20.6722Z" fill="#114481"/>
<g filter="url(#filter9_di_3_143)">
<circle cx="42.4638" cy="55.4251" r="36.3975" fill="#999999"/>
<circle cx="42.4638" cy="55.4251" r="33.342" stroke="#CCCCCC" stroke-width="6.11111"/>
</g>
<g filter="url(#filter10_di_3_143)">
<path d="M165.811 55.4251C165.811 75.5269 149.515 91.8227 129.413 91.8227C109.312 91.8227 93.0159 75.5269 93.0159 55.4251C93.0159 35.3233 109.312 19.0276 129.413 19.0276C149.515 19.0276 165.811 35.3233 165.811 55.4251Z" fill="#999999"/>
<path d="M162.755 55.4251C162.755 73.8394 147.828 88.7671 129.413 88.7671C110.999 88.7671 96.0714 73.8394 96.0714 55.4251C96.0714 37.0109 110.999 22.0831 129.413 22.0831C147.828 22.0831 162.755 37.0109 162.755 55.4251Z" stroke="#CCCCCC" stroke-width="6.11111"/>
</g>
<path d="M74.8171 85.7564L74.817 114.066" stroke="#C1BDB7" stroke-width="1.22222" stroke-linejoin="round"/>
<path d="M82.9055 85.7565V98.2877V114.066" stroke="#C1BDB7" stroke-width="1.22222"/>
<path d="M90.9938 85.7565V114.066" stroke="#C1BDB7" stroke-width="1.22222"/>
<path d="M99.0821 85.7565V114.066" stroke="#C1BDB7" stroke-width="1.22222" stroke-linejoin="round"/>
<path d="M74.8171 123.165C76.2462 134.121 37.828 113.297 22.2429 130.242C8.01408 145.713 16.0599 171.695 18.1987 182.817" stroke="#D70000" stroke-width="1.22222" stroke-linecap="round"/>
<path d="M81.8945 123.165C84.9276 135.298 84.2536 180.794 83.9166 182.817" stroke="#B9715B" stroke-width="1.22222" stroke-linecap="round"/>
<path d="M98.0712 124.176C103.001 135.526 128.964 117.933 144.579 130.242C161.746 143.775 145.146 182.078 151.656 183.828" stroke="black" stroke-width="1.22222" stroke-linecap="round"/>
<path d="M92.0049 182.817C92.0049 182.817 89.9828 168.662 90.9938 153.496C92.0049 138.331 89.9828 124.176 89.9828 124.176" stroke="#005BC6" stroke-width="1.22222" stroke-linecap="round"/>
<rect x="70.5897" y="95.6834" width="8.45501" height="30.698" fill="black" stroke="white" stroke-width="0.366667"/>
<rect x="78.6779" y="95.6834" width="8.45501" height="30.698" fill="black" stroke="white" stroke-width="0.366667"/>
<rect x="86.7663" y="95.6834" width="8.45501" height="30.698" fill="black" stroke="white" stroke-width="0.366667"/>
<rect x="94.8546" y="95.6834" width="8.45501" height="30.698" fill="black" stroke="white" stroke-width="0.366667"/>
<defs>
<filter id="filter0_i_3_143" x="668.737" y="112.799" width="14.3507" height="89.9586" filterUnits="userSpaceOnUse" color-interpolation-filters="sRGB">
<feFlood flood-opacity="0" result="BackgroundImageFix"/>
<feBlend mode="normal" in="SourceGraphic" in2="BackgroundImageFix" result="shape"/>
<feColorMatrix in="SourceAlpha" type="matrix" values="0 0 0 0 0 0 0 0 0 0 0 0 0 0 0 0 0 0 127 0" result="hardAlpha"/>
<feOffset dx="-2.44444"/>
<feGaussianBlur stdDeviation="2.44444"/>
<feComposite in2="hardAlpha" operator="arithmetic" k2="-1" k3="1"/>
<feColorMatrix type="matrix" values="0 0 0 0 0 0 0 0 0 0 0 0 0 0 0 0 0 0 0.25 0"/>
<feBlend mode="normal" in2="shape" result="effect1_innerShadow_3_143"/>
</filter>
<filter id="filter1_i_3_143" x="662.324" y="6.96497" width="24.7328" height="129.646" filterUnits="userSpaceOnUse" color-interpolation-filters="sRGB">
<feFlood flood-opacity="0" result="BackgroundImageFix"/>
<feBlend mode="normal" in="SourceGraphic" in2="BackgroundImageFix" result="shape"/>
<feColorMatrix in="SourceAlpha" type="matrix" values="0 0 0 0 0 0 0 0 0 0 0 0 0 0 0 0 0 0 127 0" result="hardAlpha"/>
<feOffset dx="-4.88889"/>
<feGaussianBlur stdDeviation="2.44444"/>
<feComposite in2="hardAlpha" operator="arithmetic" k2="-1" k3="1"/>
<feColorMatrix type="matrix" values="0 0 0 0 0 0 0 0 0 0 0 0 0 0 0 0 0 0 0.15 0"/>
<feBlend mode="normal" in2="shape" result="effect1_innerShadow_3_143"/>
</filter>
<filter id="filter2_i_3_143" x="668.737" y="202.757" width="14.3507" height="21.1667" filterUnits="userSpaceOnUse" color-interpolation-filters="sRGB">
<feFlood flood-opacity="0" result="BackgroundImageFix"/>
<feBlend mode="normal" in="SourceGraphic" in2="BackgroundImageFix" result="shape"/>
<feColorMatrix in="SourceAlpha" type="matrix" values="0 0 0 0 0 0 0 0 0 0 0 0 0 0 0 0 0 0 127 0" result="hardAlpha"/>
<feOffset dx="-2.44444"/>
<feGaussianBlur stdDeviation="2.44444"/>
<feComposite in2="hardAlpha" operator="arithmetic" k2="-1" k3="1"/>
<feColorMatrix type="matrix" values="0 0 0 0 0 0 0 0 0 0 0 0 0 0 0 0 0 0 0.25 0"/>
<feBlend mode="normal" in2="shape" result="effect1_innerShadow_3_143"/>
</filter>
<filter id="filter3_i_3_143" x="537.226" y="161.479" width="84.3988" height="11.5361" filterUnits="userSpaceOnUse" color-interpolation-filters="sRGB">
<feFlood flood-opacity="0" result="BackgroundImageFix"/>
<feBlend mode="normal" in="SourceGraphic" in2="BackgroundImageFix" result="shape"/>
<feColorMatrix in="SourceAlpha" type="matrix" values="0 0 0 0 0 0 0 0 0 0 0 0 0 0 0 0 0 0 127 0" result="hardAlpha"/>
<feOffset dx="11"/>
<feGaussianBlur stdDeviation="2.44444"/>
<feComposite in2="hardAlpha" operator="arithmetic" k2="-1" k3="1"/>
<feColorMatrix type="matrix" values="0 0 0 0 0 0 0 0 0 0 0 0 0 0 0 0 0 0 0.3 0"/>
<feBlend mode="normal" in2="shape" result="effect1_innerShadow_3_143"/>
</filter>
<filter id="filter4_i_3_143" x="537.226" y="99.1841" width="84.3988" height="11.5361" filterUnits="userSpaceOnUse" color-interpolation-filters="sRGB">
<feFlood flood-opacity="0" result="BackgroundImageFix"/>
<feBlend mode="normal" in="SourceGraphic" in2="BackgroundImageFix" result="shape"/>
<feColorMatrix in="SourceAlpha" type="matrix" values="0 0 0 0 0 0 0 0 0 0 0 0 0 0 0 0 0 0 127 0" result="hardAlpha"/>
<feOffset dx="11"/>
<feGaussianBlur stdDeviation="2.44444"/>
<feComposite in2="hardAlpha" operator="arithmetic" k2="-1" k3="1"/>
<feColorMatrix type="matrix" values="0 0 0 0 0 0 0 0 0 0 0 0 0 0 0 0 0 0 0.3 0"/>
<feBlend mode="normal" in2="shape" result="effect1_innerShadow_3_143"/>
</filter>
<filter id="filter5_i_3_143" x="537.226" y="36.8891" width="84.3988" height="11.5361" filterUnits="userSpaceOnUse" color-interpolation-filters="sRGB">
<feFlood flood-opacity="0" result="BackgroundImageFix"/>
<feBlend mode="normal" in="SourceGraphic" in2="BackgroundImageFix" result="shape"/>
<feColorMatrix in="SourceAlpha" type="matrix" values="0 0 0 0 0 0 0 0 0 0 0 0 0 0 0 0 0 0 127 0" result="hardAlpha"/>
<feOffset dx="11"/>
<feGaussianBlur stdDeviation="2.44444"/>
<feComposite in2="hardAlpha" operator="arithmetic" k2="-1" k3="1"/>
<feColorMatrix type="matrix" values="0 0 0 0 0 0 0 0 0 0 0 0 0 0 0 0 0 0 0.3 0"/>
<feBlend mode="normal" in2="shape" result="effect1_innerShadow_3_143"/>
</filter>
<filter id="filter6_d_3_143" x="355.252" y="22.2152" width="49.1622" height="166.041" filterUnits="userSpaceOnUse" color-interpolation-filters="sRGB">
<feFlood flood-opacity="0" result="BackgroundImageFix"/>
<feColorMatrix in="SourceAlpha" type="matrix" values="0 0 0 0 0 0 0 0 0 0 0 0 0 0 0 0 0 0 127 0" result="hardAlpha"/>
<feOffset dx="1" dy="2"/>
<feGaussianBlur stdDeviation="1.1"/>
<feComposite in2="hardAlpha" operator="out"/>
<feColorMatrix type="matrix" values="0 0 0 0 0 0 0 0 0 0 0 0 0 0 0 0 0 0 0.3 0"/>
<feBlend mode="normal" in2="BackgroundImageFix" result="effect1_dropShadow_3_143"/>
<feBlend mode="normal" in="SourceGraphic" in2="effect1_dropShadow_3_143" result="shape"/>
</filter>
<filter id="filter7_i_3_143" x="364.742" y="31.5628" width="30.1836" height="141.346" filterUnits="userSpaceOnUse" color-interpolation-filters="sRGB">
<feFlood flood-opacity="0" result="BackgroundImageFix"/>
<feBlend mode="normal" in="SourceGraphic" in2="BackgroundImageFix" result="shape"/>
<feColorMatrix in="SourceAlpha" type="matrix" values="0 0 0 0 0 0 0 0 0 0 0 0 0 0 0 0 0 0 127 0" result="hardAlpha"/>
<feOffset dx="2" dy="-2"/>
<feGaussianBlur stdDeviation="2"/>
<feComposite in2="hardAlpha" operator="arithmetic" k2="-1" k3="1"/>
<feColorMatrix type="matrix" values="0 0 0 0 0 0 0 0 0 0 0 0 0 0 0 0 0 0 0.35 0"/>
<feBlend mode="normal" in2="shape" result="effect1_innerShadow_3_143"/>
</filter>
<filter id="filter8_i_3_143" x="224.451" y="9.79444" width="83.7502" height="116.404" filterUnits="userSpaceOnUse" color-interpolation-filters="sRGB">
<feFlood flood-opacity="0" result="BackgroundImageFix"/>
<feBlend mode="normal" in="SourceGraphic" in2="BackgroundImageFix" result="shape"/>
<feColorMatrix in="SourceAlpha" type="matrix" values="0 0 0 0 0 0 0 0 0 0 0 0 0 0 0 0 0 0 127 0" result="hardAlpha"/>
<feOffset dx="4.88889" dy="-9.77778"/>
<feGaussianBlur stdDeviation="3.60556"/>
<feComposite in2="hardAlpha" operator="arithmetic" k2="-1" k3="1"/>
<feColorMatrix type="matrix" values="0 0 0 0 0 0 0 0 0 0 0 0 0 0 0 0 0 0 0.3 0"/>
<feBlend mode="normal" in2="shape" result="effect1_innerShadow_3_143"/>
</filter>
<filter id="filter9_di_3_143" x="6.06622" y="16.5831" width="83.7951" height="82.5728" filterUnits="userSpaceOnUse" color-interpolation-filters="sRGB">
<feFlood flood-opacity="0" result="BackgroundImageFix"/>
<feColorMatrix in="SourceAlpha" type="matrix" values="0 0 0 0 0 0 0 0 0 0 0 0 0 0 0 0 0 0 127 0" result="hardAlpha"/>
<feOffset dx="6.11111" dy="2.44444"/>
<feGaussianBlur stdDeviation="2.44444"/>
<feComposite in2="hardAlpha" operator="out"/>
<feColorMatrix type="matrix" values="0 0 0 0 0 0 0 0 0 0 0 0 0 0 0 0 0 0 0.25 0"/>
<feBlend mode="normal" in2="BackgroundImageFix" result="effect1_dropShadow_3_143"/>
<feBlend mode="normal" in="SourceGraphic" in2="effect1_dropShadow_3_143" result="shape"/>
<feColorMatrix in="SourceAlpha" type="matrix" values="0 0 0 0 0 0 0 0 0 0 0 0 0 0 0 0 0 0 127 0" result="hardAlpha"/>
<feOffset dx="6.11111" dy="1.22222"/>
<feGaussianBlur stdDeviation="2.44444"/>
<feComposite in2="hardAlpha" operator="arithmetic" k2="-1" k3="1"/>
<feColorMatrix type="matrix" values="0 0 0 0 0 0 0 0 0 0 0 0 0 0 0 0 0 0 0.25 0"/>
<feBlend mode="normal" in2="shape" result="effect2_innerShadow_3_143"/>
</filter>
<filter id="filter10_di_3_143" x="90.5714" y="16.5831" width="82.5729" height="82.5728" filterUnits="userSpaceOnUse" color-interpolation-filters="sRGB">
<feFlood flood-opacity="0" result="BackgroundImageFix"/>
<feColorMatrix in="SourceAlpha" type="matrix" values="0 0 0 0 0 0 0 0 0 0 0 0 0 0 0 0 0 0 127 0" result="hardAlpha"/>
<feOffset dx="2.44444" dy="2.44444"/>
<feGaussianBlur stdDeviation="2.44444"/>
<feComposite in2="hardAlpha" operator="out"/>
<feColorMatrix type="matrix" values="0 0 0 0 0 0 0 0 0 0 0 0 0 0 0 0 0 0 0.25 0"/>
<feBlend mode="normal" in2="BackgroundImageFix" result="effect1_dropShadow_3_143"/>
<feBlend mode="normal" in="SourceGraphic" in2="effect1_dropShadow_3_143" result="shape"/>
<feColorMatrix in="SourceAlpha" type="matrix" values="0 0 0 0 0 0 0 0 0 0 0 0 0 0 0 0 0 0 127 0" result="hardAlpha"/>
<feOffset dx="6.11111" dy="1.22222"/>
<feGaussianBlur stdDeviation="2.44444"/>
<feComposite in2="hardAlpha" operator="arithmetic" k2="-1" k3="1"/>
<feColorMatrix type="matrix" values="0 0 0 0 0 0 0 0 0 0 0 0 0 0 0 0 0 0 0.25 0"/>
<feBlend mode="normal" in2="shape" result="effect2_innerShadow_3_143"/>
</filter>
</defs>
</svg>
