<svg width="160" height="160" viewBox="0 0 160 160" fill="none" xmlns="http://www.w3.org/2000/svg">
<path fill-rule="evenodd" clip-rule="evenodd" d="M142 0C151.941 0 160 8.05887 160 18V142C160 151.941 151.941 160 142 160H18C8.05888 160 0 151.941 0 142V18C0 8.05888 8.05887 0 18 0H142ZM20 145C17.2386 145 15 142.761 15 140C15 137.239 17.2386 135 20 135C22.7614 135 25 137.239 25 140C25 142.761 22.7614 145 20 145ZM15 20C15 22.7614 17.2386 25 20 25C22.7614 25 25 22.7614 25 20C25 17.2386 22.7614 15 20 15C17.2386 15 15 17.2386 15 20ZM140 145C137.239 145 135 142.761 135 140C135 137.239 137.239 135 140 135C142.761 135 145 137.239 145 140C145 142.761 142.761 145 140 145ZM135 20C135 22.7614 137.239 25 140 25C142.761 25 145 22.7614 145 20C145 17.2386 142.761 15 140 15C137.239 15 135 17.2386 135 20Z" fill="black"/>
<circle cx="20" cy="20" r="7" stroke="#D19F72" stroke-width="4"/>
<circle cx="20" cy="140" r="7" stroke="#D19F72" stroke-width="4"/>
<circle cx="140" cy="140" r="7" stroke="#D19F72" stroke-width="4"/>
<circle cx="140" cy="20" r="7" stroke="#D19F72" stroke-width="4"/>
<path d="M65 2.38419e-07V25M75 2.38419e-07V25M85 2.38419e-07V25M95 2.38419e-07V25" stroke="#D19F72" stroke-width="2.5"/>
<path d="M65 135V160M75 135V160M85 135V160M95 135V160" stroke="#D19F72" stroke-width="2.5"/>
<path d="M25 65H0M25 75H0M25 85H0M25 95H0" stroke="#D19F72" stroke-width="2.5"/>
<path d="M160 65H135M160 75H135M160 85H135M160 95H135" stroke="#D19F72" stroke-width="2.5"/>
<path d="M38.6797 48H52.3597L77.0797 71.28V89.4L53.7997 67.44V117H38.6797V48ZM121.36 48H107.8L82.9597 71.28V89.4L106.24 67.44V117H121.36V48Z" fill="#D19F72"/>
</svg>
